<svg width="32" height="32" viewBox="0 0 32 32" fill="none" xmlns="http://www.w3.org/2000/svg">
<rect width="32" height="32" rx="6" fill="url(#logoGradient)"/>
<path d="M16 8C13.2 8 11 10.2 11 13C11 15.8 13.2 18 16 18C18.8 18 21 15.8 21 13C21 10.2 18.8 8 16 8Z" fill="white"/>
<path d="M22 20C22 17.8 20.2 16 18 16H14C11.8 16 10 17.8 10 20V22C10 23.1 10.9 24 12 24H20C21.1 24 22 23.1 22 22V20Z" fill="white"/>
<defs>
<linearGradient id="logoGradient" x1="0%" y1="0%" x2="100%" y2="100%">
<stop offset="0%" style="stop-color:#3B82F6;stop-opacity:1" />
<stop offset="100%" style="stop-color:#8B5CF6;stop-opacity:1" />
</linearGradient>
</defs>
</svg>
